<svg width="200" height="200" viewBox="0 0 200 200" fill="none" xmlns="http://www.w3.org/2000/svg">
  <!-- GitLab Logo -->
  <path d="M100 160L135 100L120 60H80L65 100L100 160Z" fill="#E24329"/>
  <path d="M100 160L65 100H30L100 160Z" fill="#FC6D26"/>
  <path d="M30 100L20 120L100 160L30 100Z" fill="#FCA326"/>
  <path d="M30 100H65L50 60L40 80L30 100Z" fill="#E24329"/>
  <path d="M100 160L135 100H170L100 160Z" fill="#FC6D26"/>
  <path d="M170 100L180 120L100 160L170 100Z" fill="#FCA326"/>
  <path d="M170 100H135L150 60L160 80L170 100Z" fill="#E24329"/>

  <!-- Connection Lines -->
  <path d="M100 40C60 40 40 75 40 75" stroke="#6366F1" stroke-width="3" stroke-dasharray="5 5"/>
  <path d="M100 40C140 40 160 75 160 75" stroke="#6366F1" stroke-width="3" stroke-dasharray="5 5"/>

  <!-- Pilot App Rep -->
  <rect x="80" y="20" width="40" height="40" rx="5" fill="#4F46E5"/>
  <rect x="90" y="30" width="20" height="4" rx="1" fill="white"/>
  <rect x="90" y="38" width="20" height="4" rx="1" fill="white"/>
  <rect x="90" y="46" width="15" height="4" rx="1" fill="white"/>

  <!-- Code Symbols -->
  <rect x="30" y="70" width="20" height="20" rx="3" fill="white"/>
  <path d="M35 80 L45 80 M35 75 L40 75 M35 85 L42 85" stroke="#4F46E5" stroke-width="2" stroke-linecap="round"/>

  <rect x="150" y="70" width="20" height="20" rx="3" fill="white"/>
  <path d="M155 80 L165 80 M155 75 L160 75 M155 85 L162 85" stroke="#4F46E5" stroke-width="2" stroke-linecap="round"/>
</svg>
