<svg width="200" height="200" viewBox="0 0 200 200" fill="none" xmlns="http://www.w3.org/2000/svg">
  <!-- Main Circle -->
  <circle cx="100" cy="100" r="60" fill="#EEF2FF" stroke="#4F46E5" stroke-width="3"/>
  
  <!-- Notification Dots -->
  <circle cx="70" cy="70" r="10" fill="#4F46E5">
    <animate attributeName="opacity" values="1;0.2;1" dur="2s" repeatCount="indefinite" />
  </circle>
  <circle cx="130" cy="70" r="10" fill="#6366F1">
    <animate attributeName="opacity" values="0.2;1;0.2" dur="2s" repeatCount="indefinite" />
  </circle>
  <circle cx="70" cy="130" r="10" fill="#818CF8">
    <animate attributeName="opacity" values="0.5;1;0.5" dur="2s" repeatCount="indefinite" />
  </circle>
  <circle cx="130" cy="130" r="10" fill="#A5B4FC">
    <animate attributeName="opacity" values="1;0.5;1" dur="2s" repeatCount="indefinite" />
  </circle>
  
  <!-- Center Device -->
  <rect x="85" y="85" width="30" height="30" rx="5" fill="white" stroke="#4F46E5" stroke-width="2"/>
  <rect x="90" y="90" width="20" height="3" rx="1" fill="#4F46E5"/>
  <rect x="90" y="96" width="20" height="3" rx="1" fill="#4F46E5"/>
  <rect x="90" y="102" width="15" height="3" rx="1" fill="#4F46E5"/>
  <rect x="90" y="108" width="10" height="3" rx="1" fill="#4F46E5"/>
  
  <!-- Pulse Rings -->
  <circle cx="100" cy="100" r="70" stroke="#4F46E5" stroke-width="2" fill="none" opacity="0.5">
    <animate attributeName="r" values="65;80;65" dur="3s" repeatCount="indefinite" />
    <animate attributeName="opacity" values="0.8;0;0.8" dur="3s" repeatCount="indefinite" />
  </circle>
  <circle cx="100" cy="100" r="75" stroke="#6366F1" stroke-width="1.5" fill="none" opacity="0.3">
    <animate attributeName="r" values="75;90;75" dur="3s" repeatCount="indefinite" />
    <animate attributeName="opacity" values="0.6;0;0.6" dur="3s" repeatCount="indefinite" />
  </circle>
  
  <!-- Connection Lines -->
  <line x1="78" y1="78" x2="92" y2="92" stroke="#4F46E5" stroke-width="2"/>
  <line x1="122" y1="78" x2="108" y2="92" stroke="#6366F1" stroke-width="2"/>
  <line x1="78" y1="122" x2="92" y2="108" stroke="#818CF8" stroke-width="2"/>
  <line x1="122" y1="122" x2="108" y2="108" stroke="#A5B4FC" stroke-width="2"/>
</svg> 