<svg width="200" height="200" viewBox="0 0 200 200" fill="none" xmlns="http://www.w3.org/2000/svg">
  <!-- People Group -->
  <circle cx="60" cy="60" r="20" fill="#4F46E5"/>
  <circle cx="100" cy="40" r="20" fill="#6366F1"/>
  <circle cx="140" cy="60" r="20" fill="#4F46E5"/>
  
  <!-- Connection Lines -->
  <line x1="70" y1="75" x2="90" y2="95" stroke="#818CF8" stroke-width="3"/>
  <line x1="110" y1="55" x2="130" y2="75" stroke="#818CF8" stroke-width="3"/>
  <line x1="80" y1="40" x2="120" y2="40" stroke="#818CF8" stroke-width="3"/>
  
  <!-- Central Element -->
  <rect x="70" y="95" width="60" height="60" rx="10" fill="#6366F1"/>
  <path d="M90 115 L110 135 M110 115 L90 135" stroke="white" stroke-width="5"/>
  
  <!-- Document Icons -->
  <rect x="35" y="120" width="30" height="40" rx="4" fill="#4F46E5"/>
  <rect x="40" y="130" width="20" height="3" rx="1" fill="white"/>
  <rect x="40" y="140" width="20" height="3" rx="1" fill="white"/>
  <rect x="40" y="150" width="15" height="3" rx="1" fill="white"/>
  
  <rect x="135" y="120" width="30" height="40" rx="4" fill="#4F46E5"/>
  <rect x="140" y="130" width="20" height="3" rx="1" fill="white"/>
  <rect x="140" y="140" width="20" height="3" rx="1" fill="white"/>
  <rect x="140" y="150" width="15" height="3" rx="1" fill="white"/>
</svg> 